<?xml version="1.0" standalone="no"?>
<!DOCTYPE svg PUBLIC "-//W3C//DTD SVG 20010904//EN"
 "http://www.w3.org/TR/2001/REC-SVG-20010904/DTD/svg10.dtd">
<svg version="1.0" xmlns="http://www.w3.org/2000/svg"
 width="1836.000000pt" height="1836.000000pt" viewBox="0 0 1836.000000 1836.000000"
 preserveAspectRatio="xMidYMid meet">
<metadata>
Created by potrace 1.16, written by Peter Selinger 2001-2019
</metadata>
<g transform="translate(0.000000,1836.000000) scale(0.100000,-0.100000)"
fill="#000000" stroke="none">
<path d="M8925 14924 c-183 -13 -302 -39 -502 -109 -212 -73 -529 -224 -873
-414 -91 -51 -189 -104 -217 -119 -103 -51 -76 -54 318 -26 178 12 417 27 532
33 340 18 555 -8 774 -95 61 -24 114 -44 117 -44 3 0 22 11 42 25 82 55 156
52 194 -10 32 -52 25 -100 -22 -151 -23 -26 -26 -24 82 -59 115 -37 186 -74
246 -128 49 -44 51 -48 62 -124 21 -139 100 -257 229 -343 58 -39 133 -110
133 -125 0 -22 -148 -143 -219 -180 -47 -24 -101 -15 -165 28 -90 59 -138 80
-189 81 -43 1 -52 -3 -77 -31 -75 -83 -33 -184 97 -234 16 -6 23 -13 17 -19
-21 -20 -135 -28 -290 -20 -244 14 -441 12 -503 -5 -115 -30 -154 -59 -421
-315 -141 -135 -359 -342 -485 -460 -127 -118 -240 -228 -252 -244 -32 -42
-29 -85 16 -266 72 -288 94 -413 88 -509 -6 -103 -28 -168 -97 -276 -82 -130
-87 -183 -25 -273 60 -88 62 -113 29 -369 l-5 -43 429 0 430 0 -9 41 c-28 124
-85 184 -265 280 -138 73 -173 110 -193 201 -14 60 -2 148 44 333 86 347 257
538 595 663 124 46 194 81 338 167 106 63 157 108 257 228 26 32 50 55 53 53
8 -9 -79 -160 -135 -233 -118 -155 -278 -273 -468 -344 -30 -11 -55 -23 -54
-27 0 -4 208 -146 461 -317 254 -170 525 -355 602 -409 177 -125 316 -260 369
-362 38 -75 67 -174 67 -236 l0 -38 387 0 387 0 -35 36 c-18 20 -104 86 -189
147 -213 152 -272 199 -369 292 -146 140 -232 256 -448 597 -159 253 -195 323
-220 426 -22 94 -20 291 6 472 12 79 21 146 21 147 0 23 195 -68 285 -131 34
-25 93 -78 130 -118 56 -60 79 -98 136 -214 77 -161 211 -367 272 -420 52 -43
133 -69 196 -60 25 3 135 36 244 72 144 48 202 72 212 88 11 16 15 99 20 376
4 195 11 369 16 387 6 18 30 52 54 77 24 24 47 55 49 68 11 48 36 492 29 499
-4 4 -51 22 -103 39 -134 44 -342 148 -435 217 -82 62 -182 160 -204 202 -11
20 -3 16 45 -19 273 -198 530 -304 824 -340 231 -28 498 5 768 95 193 64 503
202 476 212 -6 2 -78 -7 -160 -21 -274 -45 -328 -51 -499 -50 -185 0 -282 14
-422 61 -89 29 -198 82 -263 127 l-45 30 80 14 c109 18 258 70 349 122 70 40
192 137 183 146 -2 2 -37 -7 -78 -21 -146 -50 -301 -76 -490 -82 -196 -6 -289
1 -289 22 0 7 -12 23 -26 34 -14 11 -159 148 -322 304 -163 156 -342 325 -398
376 -283 257 -543 428 -778 510 -69 25 -306 97 -371 114 -5 2 -86 -2 -180 -9z"/>
<path d="M9190 8926 c0 -39 -5 -67 -12 -73 -7 -5 -39 -15 -70 -22 -183 -39
-324 -182 -364 -369 -36 -171 -1 -316 102 -419 80 -80 189 -128 460 -202 182
-50 204 -63 204 -130 0 -168 -362 -135 -597 55 l-31 25 -107 -141 c-61 -81
-104 -147 -101 -155 9 -24 136 -113 221 -155 44 -22 123 -51 175 -66 52 -14
101 -27 108 -29 8 -3 12 -27 12 -75 l0 -70 110 0 110 0 0 70 0 69 38 6 c124
21 231 69 308 139 110 98 170 287 144 451 -31 202 -152 298 -490 389 -91 25
-178 50 -195 56 -87 33 -114 119 -55 175 27 26 40 30 103 33 115 6 243 -36
365 -120 24 -17 45 -28 47 -26 15 16 185 294 185 302 0 18 -101 87 -185 126
-70 33 -139 55 -237 75 -27 5 -28 7 -28 75 l0 70 -110 0 -110 0 0 -64z"/>
<path d="M6970 8060 l0 -790 195 0 195 0 0 790 0 790 -195 0 -195 0 0 -790z"/>
<path d="M7590 8060 l0 -790 195 0 195 0 0 790 0 790 -195 0 -195 0 0 -790z"/>
<path d="M3470 8823 c1 -5 87 -354 193 -778 l193 -770 201 -3 202 -2 36 112
c150 466 248 764 254 771 7 7 30 -59 207 -610 l88 -273 201 0 200 0 189 768
c104 422 191 773 194 780 3 10 -40 12 -209 10 l-212 -3 -82 -430 c-45 -236
-84 -437 -88 -445 -7 -19 8 -65 -146 450 l-126 425 -214 0 -214 0 -133 -443
c-73 -244 -134 -446 -137 -448 -2 -2 -16 62 -32 143 -15 82 -53 283 -85 448
l-57 300 -211 3 c-117 1 -212 -1 -212 -5z"/>
<path d="M10138 8603 l-3 -158 -61 -3 c-49 -2 -63 -7 -66 -20 -3 -14 -2 -251
1 -304 1 -14 13 -18 64 -20 l62 -3 5 -291 5 -290 38 -77 c41 -82 88 -130 166
-169 37 -18 63 -23 136 -23 81 0 97 3 155 32 36 17 78 42 94 55 l29 24 -33
136 -34 135 -32 -13 c-75 -31 -136 -3 -149 67 -3 19 -5 120 -3 224 l3 190 103
3 102 3 0 169 0 170 -105 0 -105 0 0 160 0 160 -185 0 -184 0 -3 -157z"/>
<path d="M14260 8600 l0 -160 -65 0 -65 0 0 -170 0 -170 64 0 65 0 3 -287 c3
-273 5 -291 26 -346 73 -180 255 -268 433 -208 69 23 159 83 159 105 0 13 -43
203 -56 248 -5 16 -8 17 -34 3 -49 -25 -94 -19 -124 15 -34 41 -37 66 -34 280
l3 185 103 3 102 3 0 169 0 170 -105 0 -105 0 0 160 0 160 -185 0 -185 0 0
-160z"/>
<path d="M6190 8464 c-166 -29 -225 -47 -333 -101 -41 -20 -67 -39 -64 -46 15
-34 109 -242 112 -245 1 -1 31 11 67 28 171 80 342 49 392 -72 29 -70 19 -81
-46 -55 -77 31 -258 31 -343 -1 -226 -84 -333 -308 -241 -507 97 -214 388
-293 586 -160 29 19 54 35 56 35 2 0 4 -16 4 -35 l0 -35 185 0 185 0 0 388 c0
315 -3 399 -15 447 -44 169 -145 281 -302 334 -59 20 -194 34 -243 25z m138
-719 l52 -16 0 -69 c0 -59 -4 -73 -26 -99 -89 -107 -264 -77 -281 46 -7 51 20
109 61 134 39 24 122 25 194 4z"/>
<path d="M11584 8460 c-92 -19 -187 -89 -239 -178 -11 -17 -23 -32 -27 -32 -4
0 -8 43 -8 95 l0 95 -195 0 -195 0 0 -585 0 -585 195 0 195 0 0 258 c0 144 5
284 11 317 28 152 116 235 277 260 l42 7 0 179 c0 98 -3 179 -7 178 -5 -1 -27
-5 -49 -9z"/>
<path d="M12215 8463 c-286 -38 -477 -280 -477 -602 0 -178 50 -327 146 -437
169 -192 461 -239 705 -113 82 43 144 96 136 116 -2 7 -48 62 -101 122 l-97
109 -52 -33 c-51 -33 -140 -65 -179 -65 -87 0 -183 77 -211 168 l-6 22 371 0
c320 0 371 2 376 15 9 23 -15 206 -37 287 -81 290 -300 447 -574 411z m161
-348 c40 -24 94 -94 94 -123 0 -9 -52 -12 -190 -12 -104 0 -190 2 -190 5 0 3
9 22 19 43 53 104 172 142 267 87z"/>
<path d="M13398 8460 c-218 -37 -381 -191 -438 -416 -25 -98 -27 -269 -4 -363
38 -155 141 -299 265 -369 163 -93 388 -93 568 -2 73 36 144 97 137 117 -3 7
-49 62 -103 122 l-97 109 -44 -30 c-46 -31 -146 -68 -185 -68 -79 0 -156 54
-193 135 l-24 50 373 5 372 5 -3 80 c-5 150 -42 289 -104 392 -107 178 -308
268 -520 233z m173 -340 c38 -20 99 -97 99 -127 0 -10 -40 -13 -190 -13 -104
0 -190 4 -190 9 0 23 69 108 105 128 52 29 122 30 176 3z"/>
<path d="M9170 6419 l0 -340 -47 48 c-166 170 -473 157 -654 -27 -73 -75 -131
-191 -155 -310 -20 -102 -15 -284 11 -370 43 -142 141 -269 252 -327 82 -43
150 -57 253 -51 119 7 213 51 294 138 31 34 56 65 56 71 0 5 5 9 10 9 6 0 10
-33 10 -77 0 -127 -3 -123 103 -123 l90 0 -6 83 c-4 45 -7 427 -7 850 l0 767
-105 0 -105 0 0 -341z m-236 -344 c104 -27 179 -94 217 -195 16 -43 19 -77 19
-230 0 -159 -2 -186 -22 -237 -29 -79 -113 -163 -186 -187 -62 -21 -149 -24
-209 -7 -85 23 -173 113 -214 218 -31 81 -38 261 -14 352 42 163 135 264 268
290 63 13 77 12 141 -4z"/>
<path d="M4862 5881 c-150 -441 -272 -805 -272 -811 0 -7 35 -10 103 -8 l102
3 85 253 85 252 289 -2 290 -3 80 -235 c45 -129 84 -243 88 -252 6 -16 22 -18
113 -18 58 0 105 3 105 8 0 4 -123 367 -273 807 l-273 800 -126 3 -125 3 -271
-800z m421 511 c15 -53 67 -218 117 -366 49 -148 90 -275 90 -282 0 -12 -43
-14 -240 -14 -132 0 -240 3 -240 7 0 4 42 134 94 288 52 154 105 322 117 373
13 50 26 92 30 92 3 0 18 -44 32 -98z"/>
<path d="M6598 6240 c-205 -24 -384 -144 -463 -311 -50 -106 -65 -177 -65
-299 0 -124 16 -195 66 -299 106 -216 357 -326 644 -281 95 15 190 49 190 67
0 14 -29 135 -34 140 -1 2 -25 -6 -53 -17 -28 -10 -86 -23 -129 -29 -203 -24
-357 56 -437 227 -27 57 -31 79 -35 172 -9 216 64 357 226 433 64 31 72 32
192 31 103 0 134 -4 178 -21 38 -15 54 -18 58 -10 2 7 13 42 23 79 l19 66 -26
10 c-54 21 -99 31 -175 42 -85 11 -82 11 -179 0z"/>
<path d="M7470 6239 c-71 -12 -200 -56 -230 -79 l-23 -17 20 -59 c13 -38 25
-58 34 -57 8 1 55 17 104 34 75 26 105 32 180 32 172 0 255 -71 271 -232 l7
-61 -54 0 c-82 0 -215 -18 -298 -41 -159 -43 -266 -121 -317 -231 -24 -54 -29
-76 -29 -148 0 -108 22 -167 87 -236 65 -68 128 -96 236 -102 140 -8 284 49
355 139 30 39 33 35 45 -56 l7 -60 94 -3 93 -3 -6 33 c-3 18 -9 202 -12 408
-6 394 -13 459 -55 543 -67 131 -179 194 -359 202 -52 2 -120 0 -150 -6z m360
-706 c0 -103 -4 -136 -19 -169 -27 -59 -77 -111 -135 -142 -43 -22 -64 -27
-132 -27 -71 0 -85 3 -121 27 -54 36 -83 96 -83 175 0 166 148 254 443 262
l47 1 0 -127z"/>
<path d="M10074 6235 c-186 -40 -323 -173 -391 -380 -23 -70 -26 -97 -27 -220
-1 -120 2 -151 22 -215 90 -286 342 -420 697 -370 76 11 213 49 220 61 6 8
-20 128 -29 137 -4 3 -30 -2 -59 -11 -146 -45 -323 -48 -432 -7 -123 47 -210
171 -222 318 l-6 62 406 0 407 0 6 26 c22 86 -26 313 -85 406 -105 165 -298
239 -507 193z m244 -170 c87 -47 142 -143 145 -254 l2 -56 -303 -3 c-338 -3
-322 -6 -302 68 33 124 111 223 203 259 76 31 184 25 255 -14z"/>
<path d="M11390 6236 c-98 -22 -179 -75 -235 -155 -15 -23 -31 -38 -36 -35 -5
3 -9 43 -9 90 l0 84 -92 0 -93 0 5 -577 5 -578 100 0 100 0 5 395 5 395 28 57
c54 109 165 177 269 165 91 -11 159 -69 198 -167 11 -27 16 -128 20 -440 l5
-405 98 -3 97 -3 0 353 c0 455 8 506 97 589 60 58 98 73 178 73 120 0 186 -51
228 -176 19 -59 21 -91 25 -451 l4 -388 96 3 97 3 0 410 c0 453 -1 463 -67
588 -93 174 -312 236 -504 142 -55 -27 -147 -112 -170 -157 -19 -37 -27 -35
-48 8 -42 89 -120 154 -218 180 -63 16 -114 17 -188 0z"/>
<path d="M12762 6203 c3 -10 100 -255 217 -546 116 -290 211 -541 211 -557 0
-64 -103 -219 -192 -290 -28 -22 -79 -54 -114 -71 -35 -18 -64 -35 -64 -38 0
-3 10 -40 23 -81 18 -58 27 -76 43 -78 11 -2 56 15 100 37 181 91 301 250 447
592 24 57 124 313 222 569 97 256 179 469 182 473 2 4 -46 6 -107 5 l-112 -3
-119 -350 c-65 -192 -133 -398 -151 -457 -18 -59 -35 -104 -39 -100 -3 4 -20
52 -37 107 -17 55 -90 258 -161 450 l-129 350 -112 3 c-104 2 -112 1 -108 -15z"/>
<path d="M5120 4197 c0 -1 -25 -121 -55 -266 -30 -145 -55 -272 -55 -282 0
-12 7 -19 19 -19 21 0 19 -8 95 358 l43 212 -23 0 c-13 0 -24 -1 -24 -3z"/>
<path d="M9396 4183 c-2 -10 -12 -56 -21 -103 -19 -96 -28 -112 -45 -81 -30
58 -127 78 -205 42 -155 -70 -209 -297 -91 -385 63 -47 137 -42 215 15 l43 30
-4 -33 c-2 -27 1 -34 18 -36 19 -3 24 15 78 275 31 153 56 281 56 286 0 15
-39 6 -44 -10z m-125 -186 c66 -44 77 -118 32 -207 -39 -75 -88 -112 -156
-118 -49 -4 -57 -1 -86 24 -105 95 -3 324 145 324 17 0 46 -10 65 -23z"/>
<path d="M11802 4153 c-6 -27 -16 -76 -23 -110 -14 -67 -22 -75 -39 -42 -29
54 -123 75 -198 44 -56 -24 -119 -92 -142 -153 -41 -110 -13 -208 72 -250 60
-30 109 -24 179 24 28 19 52 34 53 34 1 0 0 -16 -2 -35 -4 -30 -1 -35 17 -35
12 0 21 2 21 4 0 4 107 519 114 549 3 12 -2 17 -19 17 -20 0 -25 -7 -33 -47z
m-95 -177 c28 -30 33 -43 33 -85 0 -62 -28 -126 -71 -168 -40 -38 -77 -53
-127 -53 -124 0 -154 178 -49 289 44 46 83 62 137 57 35 -3 51 -11 77 -40z"/>
<path d="M7825 4128 c-10 -62 -22 -78 -54 -78 -16 0 -31 -6 -34 -14 -8 -19 1
-26 35 -26 23 0 28 -4 24 -17 -3 -10 -17 -80 -32 -155 -30 -155 -26 -186 26
-208 38 -16 100 3 100 30 0 15 -8 18 -47 17 l-48 -2 -2 35 c-2 19 10 94 25
165 l28 130 55 5 c40 4 55 9 57 22 3 14 -6 17 -45 20 -53 3 -56 10 -40 86 6
29 4 32 -17 32 -21 0 -25 -6 -31 -42z"/>
<path d="M5392 4034 c-29 -14 -68 -45 -87 -68 -137 -167 -42 -373 154 -336 53
10 131 45 131 58 0 26 -24 27 -67 5 -54 -27 -129 -31 -173 -8 -37 19 -62 66
-58 107 l3 31 119 3 c142 4 194 23 221 80 55 117 -101 199 -243 128z m168 -29
c32 -17 49 -59 33 -84 -22 -37 -74 -51 -185 -51 -60 0 -108 2 -108 5 0 15 31
63 57 87 57 55 145 73 203 43z"/>
<path d="M5895 4038 c-78 -40 -126 -104 -145 -195 -14 -65 -1 -120 41 -168 61
-69 163 -67 243 4 l39 36 -7 -43 c-6 -41 -5 -43 16 -40 21 3 26 16 59 174 56
266 54 244 24 244 -19 0 -25 -5 -25 -22 0 -13 -4 -29 -9 -37 -7 -11 -13 -8
-26 13 -38 58 -134 74 -210 34z m153 -38 c49 -30 67 -80 53 -148 -21 -106 -86
-172 -175 -180 -45 -4 -56 -1 -83 22 -45 38 -59 85 -44 152 30 133 156 211
249 154z"/>
<path d="M6500 4044 c-19 -8 -48 -27 -63 -42 l-29 -27 7 38 c7 34 5 37 -16 37
-23 0 -26 -8 -63 -192 -22 -106 -42 -201 -44 -211 -4 -15 0 -18 19 -15 22 3
26 13 51 128 15 69 35 140 45 159 23 43 66 76 123 92 42 12 59 24 60 42 0 12
-53 7 -90 -9z"/>
<path d="M6841 4049 c-13 -5 -37 -19 -54 -31 l-30 -21 5 26 c4 23 2 27 -18 27
-13 0 -24 -2 -24 -4 0 -2 -18 -89 -40 -195 -22 -105 -40 -198 -40 -206 0 -8 9
-15 19 -15 20 0 19 -3 66 211 21 97 42 131 100 159 83 40 165 10 165 -60 0
-15 -11 -82 -25 -150 -31 -150 -31 -160 -5 -160 11 0 20 2 20 5 0 3 14 69 30
147 17 77 30 152 30 165 0 37 -27 81 -60 98 -32 17 -102 19 -139 4z"/>
<path d="M8245 4041 c-22 -10 -46 -25 -54 -34 -21 -26 -31 -20 -24 14 5 28 4
30 -17 27 -22 -3 -26 -16 -66 -206 -35 -171 -39 -204 -27 -209 24 -9 32 8 58
136 35 171 64 213 170 244 31 8 51 21 53 31 5 22 -41 21 -93 -3z"/>
<path d="M8565 4041 c-154 -69 -209 -297 -94 -384 66 -49 138 -44 218 15 l44
32 -5 -33 c-5 -34 14 -53 32 -35 8 8 90 378 90 405 0 5 -9 9 -20 9 -15 0 -22
-9 -27 -30 -7 -39 -19 -46 -33 -20 -30 57 -128 76 -205 41z m142 -41 c47 -28
67 -73 60 -132 -13 -106 -89 -188 -180 -196 -46 -4 -57 -1 -85 23 -59 50 -62
137 -8 227 52 87 144 120 213 78z"/>
<path d="M9675 4042 c-94 -45 -158 -143 -158 -242 0 -151 130 -216 296 -146
41 17 53 32 38 50 -9 11 -20 9 -58 -10 -56 -29 -132 -32 -174 -7 -34 20 -61
73 -57 111 l3 27 115 2 c136 3 192 20 221 67 32 52 21 104 -29 141 -39 28
-144 32 -197 7z m163 -42 c23 -14 32 -27 32 -46 0 -67 -39 -84 -191 -84 -121
0 -125 4 -68 73 58 71 161 97 227 57z"/>
<path d="M10465 4041 c-122 -56 -190 -223 -135 -331 50 -97 156 -114 258 -40
23 16 44 30 46 30 3 0 1 -13 -4 -29 -4 -16 -6 -32 -2 -35 7 -7 42 -8 42 -1 0
2 18 91 40 196 22 106 40 198 40 205 0 8 -9 14 -19 14 -20 0 -31 -18 -31 -51
0 -25 -16 -24 -30 2 -30 56 -129 75 -205 40z m168 -59 c45 -45 49 -117 10
-191 -39 -76 -88 -113 -156 -119 -49 -4 -57 -1 -88 26 -33 29 -34 33 -34 104
0 65 4 81 30 123 59 96 172 123 238 57z"/>
<path d="M11045 4045 c-16 -9 -37 -23 -46 -31 -23 -21 -30 -17 -23 11 5 21 3
25 -18 25 -23 0 -25 -7 -66 -203 -23 -111 -42 -206 -42 -210 0 -5 10 -7 22 -5
19 3 24 15 40 88 38 183 48 214 76 243 56 60 144 75 187 32 32 -31 32 -71 0
-222 -30 -142 -30 -143 -6 -143 23 0 24 1 56 159 33 163 33 192 -4 233 -24 27
-36 32 -87 35 -41 3 -68 -1 -89 -12z"/>
<path d="M12372 4039 c-88 -44 -155 -149 -154 -242 2 -150 131 -212 295 -143
40 16 49 28 41 49 -5 13 -13 12 -57 -9 -34 -16 -70 -24 -105 -24 -48 0 -58 4
-87 33 -31 31 -56 99 -42 114 3 3 57 7 120 9 127 4 185 20 217 62 42 53 14
136 -55 162 -45 17 -126 12 -173 -11z m158 -32 c31 -16 51 -54 41 -81 -15 -40
-66 -56 -183 -56 -123 0 -126 3 -79 67 50 70 156 103 221 70z"/>
<path d="M12890 4044 c-55 -23 -118 -92 -140 -152 -48 -127 1 -243 111 -267
40 -9 102 11 153 49 l44 34 -5 -39 c-5 -35 -3 -39 15 -39 14 0 23 8 27 23 3
12 23 106 44 210 l39 187 -24 0 c-19 0 -24 -7 -30 -35 -3 -19 -8 -35 -11 -35
-3 0 -14 11 -25 25 -42 54 -126 70 -198 39z m167 -68 c27 -29 33 -44 33 -78 0
-67 -18 -116 -58 -160 -43 -47 -85 -68 -139 -68 -122 0 -155 172 -55 282 47
52 85 69 142 64 35 -3 51 -11 77 -40z"/>
<path d="M13483 4045 c-18 -8 -45 -26 -59 -41 l-27 -26 6 36 c5 33 4 36 -19
36 -13 0 -24 -2 -24 -4 0 -2 -18 -88 -40 -191 -22 -103 -40 -196 -40 -206 0
-28 38 -25 45 4 3 12 14 65 25 117 29 134 36 152 73 188 34 33 93 62 127 62
13 0 20 7 20 20 0 24 -38 27 -87 5z"/>
<path d="M13815 4044 c-16 -8 -38 -23 -47 -31 -17 -15 -18 -14 -18 11 0 23 -4
27 -22 24 -21 -3 -26 -17 -60 -178 -55 -263 -52 -240 -29 -240 11 0 22 4 26 9
3 6 17 67 31 138 15 70 32 140 40 155 35 68 146 109 199 74 46 -30 48 -54 15
-214 -16 -80 -30 -149 -30 -154 0 -5 10 -8 22 -6 20 3 26 16 50 128 15 69 27
149 28 179 0 47 -4 57 -34 87 -30 30 -40 34 -87 34 -30 0 -67 -7 -84 -16z"/>
</g>
</svg>
